<?xml version="1.0" standalone="no"?>
<!DOCTYPE svg PUBLIC "-//W3C//DTD SVG 20010904//EN"
 "http://www.w3.org/TR/2001/REC-SVG-20010904/DTD/svg10.dtd">
<svg version="1.0" xmlns="http://www.w3.org/2000/svg"
 width="250.000000pt" height="250.000000pt" viewBox="0 0 250.000000 250.000000"
 preserveAspectRatio="xMidYMid meet">
<metadata>
Created by potrace 1.14, written by Peter Selinger 2001-2017
</metadata>
<g transform="translate(0.000000,250.000000) scale(0.100000,-0.100000)"
fill="#000000" stroke="none">
<path d="M780 2271 c-11 -22 -12 -140 -1 -216 11 -79 3 -95 -71 -145 -37 -25
-78 -56 -92 -69 -25 -23 -66 -115 -66 -147 0 -9 -13 -34 -29 -57 -91 -133
-126 -252 -118 -402 6 -116 31 -200 84 -284 32 -50 108 -130 124 -131 4 0 -3
-19 -15 -42 -17 -35 -21 -61 -21 -139 0 -60 5 -107 14 -125 29 -63 41 -79 56
-78 8 1 12 -2 10 -7 -14 -21 79 -51 195 -61 l117 -11 12 -33 c16 -44 50 -64
108 -63 85 1 116 0 193 -6 91 -7 120 5 134 55 5 19 10 36 10 37 1 1 43 -9 95
-23 111 -29 249 -32 329 -9 54 16 116 60 106 76 -3 5 0 8 7 7 17 -4 54 73 69
144 20 92 9 242 -23 311 -23 51 -25 62 -16 119 22 158 0 323 -66 488 -27 67
-41 122 -50 195 -12 98 -30 147 -59 158 -10 4 -11 18 -4 64 11 66 5 189 -12
247 -16 54 -60 96 -100 96 -26 0 -50 -18 -146 -110 -63 -60 -119 -110 -124
-110 -6 0 -43 9 -83 20 -39 11 -113 23 -164 27 l-92 6 -83 90 c-45 49 -100
103 -121 118 -47 34 -92 38 -107 10z m75 -36 c14 -13 25 -21 25 -17 0 14 115
-114 116 -130 1 -10 -3 -15 -8 -12 -4 3 -6 9 -3 13 2 5 -7 19 -20 31 -14 13
-25 18 -25 12 0 -6 9 -16 20 -22 11 -6 18 -15 15 -19 -7 -13 23 -34 39 -28 9
4 25 -5 38 -21 18 -21 33 -28 63 -29 89 -3 185 -15 179 -24 -3 -5 -1 -9 5 -9
5 0 18 -3 28 -6 15 -5 15 -4 3 5 -20 14 -13 14 49 -5 64 -19 60 -21 195 107
54 52 107 97 117 101 28 11 66 -36 80 -97 6 -28 8 -85 5 -130 -3 -44 -6 -93
-6 -108 0 -15 -5 -25 -10 -22 -13 8 -1 -27 14 -40 6 -6 12 -17 14 -25 2 -8 10
-28 17 -45 7 -16 16 -66 19 -110 5 -86 18 -136 29 -118 4 6 2 24 -4 39 -15 40
1 22 21 -24 14 -32 15 -38 2 -48 -12 -9 -10 -18 12 -62 14 -28 26 -59 26 -69
0 -10 5 -25 11 -33 9 -13 10 -12 5 3 -3 9 -1 17 4 17 10 0 24 -59 16 -67 -3
-4 -6 1 -6 10 0 9 -5 17 -11 17 -7 0 -8 -7 -4 -17 4 -10 10 -56 13 -103 6 -74
7 -80 13 -45 5 26 6 14 4 -35 -2 -41 -4 -99 -4 -127 0 -37 -4 -53 -13 -53 -7
0 0 -11 15 -25 15 -14 27 -29 27 -32 0 -4 -11 4 -25 17 -26 25 -36 12 -10 -13
8 -8 11 -18 7 -21 -3 -4 1 -4 10 -1 21 8 27 -3 38 -72 11 -67 2 -202 -12 -181
-6 9 -7 6 -3 -10 8 -29 -30 -105 -72 -143 -86 -75 -280 -68 -472 16 -59 26
-91 35 -109 30 -14 -3 -60 -35 -101 -69 -120 -99 -159 -113 -117 -41 33 55 10
51 -25 -5 -17 -28 -30 -39 -44 -37 -23 3 -23 6 0 62 l15 40 -31 -35 -31 -35 4
56 c8 107 83 211 192 264 77 38 172 44 325 20 100 -14 121 -15 154 -3 54 18
43 34 -23 30 -30 -2 -104 4 -164 13 -125 18 -225 10 -305 -26 -69 -31 -282
-34 -353 -4 -31 13 -20 -14 15 -35 27 -17 50 -20 140 -20 l109 0 -46 -51 c-29
-32 -52 -70 -63 -105 l-17 -54 -42 0 c-67 0 -196 20 -225 35 -36 19 -81 75
-75 92 3 8 2 12 -3 9 -11 -7 -25 95 -14 103 5 3 8 17 7 30 -2 40 14 86 40 111
24 22 26 22 66 6 22 -9 50 -16 63 -16 12 1 -13 14 -56 31 -151 60 -267 204
-282 354 -2 22 -7 56 -10 75 -14 88 37 252 116 367 16 23 34 64 40 92 14 67
44 109 109 152 30 20 79 60 109 88 30 28 58 51 63 51 4 0 8 5 8 10 0 6 -13 4
-30 -5 l-30 -16 -2 43 c-2 48 -2 52 -12 129 -8 59 -2 99 15 99 6 0 21 -11 34
-25z m958 -488 c-3 -5 -9 -3 -14 4 -4 7 -5 17 -2 22 3 5 9 3 14 -4 4 -7 5 -17
2 -22z m30 -122 c4 -46 3 -65 -3 -55 -5 8 -10 40 -10 71 0 30 -5 60 -11 66 -6
6 -8 17 -3 24 10 17 19 -16 27 -106z m51 -197 c-3 -4 -1 -8 4 -8 9 0 33 -67
31 -91 0 -8 -7 7 -15 34 -8 26 -18 47 -23 47 -5 0 -11 6 -14 13 -3 8 1 14 9
14 7 0 11 -4 8 -9z m63 -245 c-3 -10 -5 -4 -5 12 0 17 2 24 5 18 2 -7 2 -21 0
-30z m-588 -789 c29 -37 26 -50 -5 -25 -41 33 -48 25 -15 -16 26 -32 28 -39
15 -46 -11 -6 -21 -1 -35 17 -26 33 -45 34 -23 1 l16 -25 -33 1 c-19 1 -47 4
-64 8 l-30 6 65 53 c36 28 70 52 77 52 6 0 21 -12 32 -26z m-492 -10 c-3 -3
-12 -4 -19 -1 -8 3 -5 6 6 6 11 1 17 -2 13 -5z"/>
<path d="M817 2244 c-4 -5 1 -13 12 -18 11 -6 38 -28 61 -50 23 -21 44 -36 47
-33 3 3 -4 12 -16 19 -12 7 -21 18 -21 25 0 7 -7 13 -15 13 -8 0 -19 9 -25 20
-6 11 -15 18 -20 15 -4 -3 -10 0 -12 6 -2 5 -7 7 -11 3z"/>
<path d="M1717 2153 c11 -10 22 -25 26 -33 5 -13 6 -13 6 1 1 16 -29 49 -44
49 -4 0 1 -8 12 -17z"/>
<path d="M1020 2047 c0 -9 4 -18 9 -21 5 -4 8 1 7 9 -3 21 -16 31 -16 12z"/>
<path d="M1630 2017 c-49 -39 -91 -91 -79 -100 2 -2 17 -13 33 -25 16 -12 38
-22 50 -22 21 1 21 1 1 16 -11 8 -29 21 -40 29 -19 13 -17 16 45 79 74 76 70
86 -10 23z"/>
<path d="M1757 2004 c6 -68 11 -77 12 -24 0 25 -3 51 -8 59 -5 8 -7 -5 -4 -35z"/>
<path d="M1358 1963 c7 -3 16 -2 19 1 4 3 -2 6 -13 5 -11 0 -14 -3 -6 -6z"/>
<path d="M1762 1910 c0 -14 2 -19 5 -12 2 6 2 18 0 25 -3 6 -5 1 -5 -13z"/>
<path d="M755 1691 c-16 -10 -43 -32 -58 -48 -24 -26 -27 -36 -22 -66 24 -126
144 -163 225 -70 27 30 31 42 27 70 -7 43 -48 98 -87 118 -37 19 -49 19 -85
-4z m19 -28 c-17 -17 -17 -18 4 -21 12 -2 22 -10 22 -19 0 -11 -7 -14 -24 -11
-16 3 -27 0 -30 -9 -10 -25 22 -82 56 -103 l33 -20 -35 0 c-19 1 -42 6 -51 13
-22 16 -49 71 -49 98 0 22 60 89 80 89 6 0 4 -7 -6 -17z"/>
<path d="M1245 1633 c-41 -21 -74 -52 -91 -85 -13 -25 -12 -29 16 -62 97 -110
283 -95 330 28 34 89 -149 175 -255 119z m20 -32 c-5 -16 -2 -18 14 -14 12 3
29 2 38 -2 17 -6 17 -7 0 -20 -10 -7 -27 -11 -37 -8 -16 4 -20 0 -20 -23 0
-33 34 -94 52 -94 6 0 9 -3 6 -6 -10 -9 -105 36 -129 62 -20 22 -21 26 -8 50
11 21 73 74 87 74 2 0 1 -9 -3 -19z"/>
<path d="M1856 1475 c-3 -8 -1 -15 4 -15 6 0 10 7 10 15 0 8 -2 15 -4 15 -2 0
-6 -7 -10 -15z"/>
<path d="M743 1380 c-39 -24 -53 -48 -53 -95 0 -47 13 -69 57 -99 28 -19 31
-25 15 -23 -11 0 -18 5 -15 11 4 5 -1 7 -11 3 -9 -4 -14 -3 -11 2 8 14 -9 21
-24 12 -19 -12 -5 -67 26 -97 36 -36 67 -45 151 -45 64 0 84 5 146 34 75 37
146 90 134 102 -4 4 -19 -2 -34 -14 -33 -26 -114 -51 -165 -51 -24 0 -52 9
-73 24 l-34 23 34 16 c39 19 74 70 74 108 0 83 -136 139 -217 89z m122 -20
c-3 -5 -28 -10 -55 -10 -27 0 -52 5 -55 10 -4 6 17 10 55 10 38 0 59 -4 55
-10z"/>
<path d="M1046 1261 c-4 -5 -2 -12 3 -15 5 -4 12 -2 15 3 4 5 2 12 -3 15 -5 4
-12 2 -15 -3z"/>
<path d="M660 1230 c0 -5 5 -10 10 -10 6 0 10 5 10 10 0 6 -4 10 -10 10 -5 0
-10 -4 -10 -10z"/>
<path d="M980 1230 c0 -5 5 -10 11 -10 5 0 7 5 4 10 -3 6 -8 10 -11 10 -2 0
-4 -4 -4 -10z"/>
<path d="M1942 1040 c0 -14 2 -19 5 -12 2 6 2 18 0 25 -3 6 -5 1 -5 -13z"/>
<path d="M1932 940 c0 -14 2 -19 5 -12 2 6 2 18 0 25 -3 6 -5 1 -5 -13z"/>
<path d="M1971 775 c1 -16 5 -41 9 -55 7 -22 8 -20 9 15 0 22 -4 47 -9 55 -7
11 -9 8 -9 -15z"/>
<path d="M855 763 c41 -24 185 -24 235 0 l35 17 -40 -7 c-48 -10 -212 -8 -240
1 -11 4 -6 -1 10 -11z"/>
<path d="M1991 674 c0 -11 3 -14 6 -6 3 7 2 16 -1 19 -3 4 -6 -2 -5 -13z"/>
</g>
</svg>
